<svg xmlns="http://www.w3.org/2000/svg" viewBox="0 0 1920 1080" width="1920" height="1080">
  <defs>
    <linearGradient id="hero-bg" x1="0" y1="0" x2="1" y2="1"><stop stop-color="#071827"/><stop offset="0.56" stop-color="#123f52"/><stop offset="1" stop-color="#156b70"/></linearGradient>
    <linearGradient id="hero-cloud" x1="0" y1="0" x2="0" y2="1"><stop stop-color="#ffffff"/><stop offset="1" stop-color="#d8eef2"/></linearGradient>
    <filter id="hero-shadow" x="-30%" y="-30%" width="160%" height="170%"><feDropShadow dy="18" stdDeviation="22" flood-color="#020b12" flood-opacity="0.4"/></filter>
  </defs>
  <rect width="1920" height="1080" fill="url(#hero-bg)"/>
  <path d="M620 0H1920V760C1640 640 1390 730 1110 610C900 520 760 330 620 120Z" fill="#55d6c2" opacity="0.08"/>
  <circle cx="1605" cy="180" r="270" fill="none" stroke="#8de7d8" stroke-width="2" opacity="0.16"/><circle cx="1605" cy="180" r="180" fill="none" stroke="#8de7d8" stroke-width="2" opacity="0.16"/>
  <text x="90" y="118" fill="#7ee1d2" font-family="Segoe UI, sans-serif" font-size="22" font-weight="800" letter-spacing="4">FEATURE STORY</text>
  <g filter="url(#hero-shadow)">
    <circle cx="258" cy="460" r="116" fill="url(#hero-cloud)"/><circle cx="434" cy="460" r="116" fill="url(#hero-cloud)"/><circle cx="302" cy="366" r="106" fill="url(#hero-cloud)"/><circle cx="394" cy="366" r="106" fill="url(#hero-cloud)"/><ellipse cx="346" cy="478" rx="190" ry="126" fill="url(#hero-cloud)"/>
    <polygon points="220,350 346,302 472,350 346,398" fill="#f2a93b"/><polygon points="220,350 346,318 472,350 346,382" fill="#ffd166"/><path d="M438 360V440" stroke="#59cfc0" stroke-width="10"/><circle cx="438" cy="450" r="13" fill="#59cfc0"/>
    <ellipse cx="290" cy="450" rx="27" ry="34" fill="#fff"/><circle cx="296" cy="458" r="17" fill="#173442"/><circle cx="302" cy="450" r="5" fill="#fff"/><ellipse cx="402" cy="450" rx="27" ry="34" fill="#fff"/><circle cx="408" cy="458" r="17" fill="#173442"/><circle cx="414" cy="450" r="5" fill="#fff"/><path d="M306 510Q348 548 390 510" fill="none" stroke="#d75b66" stroke-width="12" stroke-linecap="round"/>
  </g>
  <g filter="url(#hero-shadow)"><rect x="620" y="130" width="1220" height="610" rx="24" fill="#06131d" opacity="0.62"/></g>
  <rect x="680" y="190" width="126" height="8" rx="4" fill="#ffd166"/>
  <rect x="680" y="590" width="860" height="18" rx="9" fill="#b8d9da" opacity="0.32"/><rect x="680" y="632" width="650" height="18" rx="9" fill="#b8d9da" opacity="0.2"/>
  <rect x="80" y="850" width="1760" height="160" rx="18" fill="#f5fbfb" filter="url(#hero-shadow)"/><rect x="80" y="850" width="12" height="160" rx="6" fill="#55d6c2"/><text x="130" y="907" fill="#16756f" font-family="Segoe UI, sans-serif" font-size="20" font-weight="800" letter-spacing="3">NARRATION</text>
</svg>
