<svg xmlns="http://www.w3.org/2000/svg" viewBox="0 0 1920 1080" width="1920" height="1080">
  <defs><linearGradient id="question-bg" x2="1" y2="1"><stop stop-color="#102137"/><stop offset="1" stop-color="#274c67"/></linearGradient><linearGradient id="question-cloud" y2="1"><stop stop-color="#fff"/><stop offset="1" stop-color="#dce9f2"/></linearGradient><filter id="question-shadow" x="-25%" y="-25%" width="150%" height="165%"><feDropShadow dy="16" stdDeviation="20" flood-color="#06101d" flood-opacity="0.42"/></filter></defs>
  <rect width="1920" height="1080" fill="url(#question-bg)"/><path d="M620 0H1920V780L1540 520 1160 690 840 400Z" fill="#55b7c5" opacity="0.09"/><text x="90" y="118" fill="#7ed6df" font-family="Segoe UI, sans-serif" font-size="22" font-weight="800" letter-spacing="4">QUESTION</text>
  <g filter="url(#question-shadow)"><circle cx="250" cy="465" r="112" fill="url(#question-cloud)"/><circle cx="422" cy="465" r="112" fill="url(#question-cloud)"/><circle cx="293" cy="372" r="102" fill="url(#question-cloud)"/><circle cx="383" cy="372" r="102" fill="url(#question-cloud)"/><ellipse cx="336" cy="482" rx="186" ry="122" fill="url(#question-cloud)"/><polygon points="216,356 336,310 456,356 336,402" fill="#dd8f42"/><polygon points="216,356 336,326 456,356 336,386" fill="#f4b65d"/><path d="M423 366V438" stroke="#68d2d5" stroke-width="10"/><circle cx="423" cy="448" r="13" fill="#68d2d5"/><ellipse cx="282" cy="454" rx="26" ry="33" fill="#fff"/><circle cx="288" cy="462" r="17" fill="#183246"/><ellipse cx="390" cy="454" rx="26" ry="33" fill="#fff"/><circle cx="396" cy="462" r="17" fill="#183246"/><path d="M308 518Q336 495 364 518" fill="none" stroke="#c85865" stroke-width="10" stroke-linecap="round"/></g>
  <text x="650" y="245" fill="#f4b65d" font-family="Georgia, serif" font-size="220" font-weight="700">?</text><text x="830" y="220" fill="#7ed6df" font-family="Segoe UI, sans-serif" font-size="24" font-weight="800" letter-spacing="5">CONSIDER THIS</text>
  <rect x="830" y="520" width="820" height="18" rx="9" fill="#badde1" opacity="0.35"/><rect x="830" y="562" width="650" height="18" rx="9" fill="#badde1" opacity="0.22"/><rect x="830" y="604" width="480" height="18" rx="9" fill="#badde1" opacity="0.14"/><circle cx="1710" cy="590" r="70" fill="none" stroke="#f4b65d" stroke-width="5" opacity="0.45"/><text x="1710" y="616" text-anchor="middle" fill="#f4b65d" font-family="Georgia, serif" font-size="78" font-weight="700">?</text>
  <rect x="80" y="850" width="1760" height="160" rx="18" fill="#f4f9fb" filter="url(#question-shadow)"/><rect x="80" y="850" width="12" height="160" rx="6" fill="#68d2d5"/><text x="130" y="907" fill="#267482" font-family="Segoe UI, sans-serif" font-size="20" font-weight="800" letter-spacing="3">NARRATION</text>
</svg>
