<svg xmlns="http://www.w3.org/2000/svg" viewBox="0 0 1920 1080" width="1920" height="1080">
  <defs><linearGradient id="callout-bg" x2="1" y2="1"><stop stop-color="#fff8ec"/><stop offset="1" stop-color="#f5d9b1"/></linearGradient><linearGradient id="callout-cloud" y2="1"><stop stop-color="#fff"/><stop offset="1" stop-color="#f1e8dc"/></linearGradient><filter id="callout-shadow" x="-25%" y="-25%" width="150%" height="165%"><feDropShadow dy="14" stdDeviation="18" flood-color="#583820" flood-opacity="0.23"/></filter></defs>
  <rect width="1920" height="1080" fill="url(#callout-bg)"/><path d="M0 0H575L500 820H0Z" fill="#993f36" opacity="0.09"/><path d="M1660 0l260 260v-260Z" fill="#d95645" opacity="0.16"/><text x="90" y="118" fill="#a74339" font-family="Segoe UI, sans-serif" font-size="22" font-weight="800" letter-spacing="4">CALLOUT</text>
  <g filter="url(#callout-shadow)"><circle cx="250" cy="465" r="112" fill="url(#callout-cloud)"/><circle cx="422" cy="465" r="112" fill="url(#callout-cloud)"/><circle cx="293" cy="372" r="102" fill="url(#callout-cloud)"/><circle cx="383" cy="372" r="102" fill="url(#callout-cloud)"/><ellipse cx="336" cy="482" rx="186" ry="122" fill="url(#callout-cloud)"/><polygon points="216,356 336,310 456,356 336,402" fill="#713b35"/><polygon points="216,356 336,326 456,356 336,386" fill="#a15449"/><path d="M423 366V438" stroke="#e8a547" stroke-width="10"/><circle cx="423" cy="448" r="13" fill="#e8a547"/><ellipse cx="282" cy="454" rx="26" ry="33" fill="#fff"/><circle cx="288" cy="462" r="17" fill="#3d302b"/><ellipse cx="390" cy="454" rx="26" ry="33" fill="#fff"/><circle cx="396" cy="462" r="17" fill="#3d302b"/><path d="M302 510Q336 538 370 510" fill="none" stroke="#cb5a62" stroke-width="11" stroke-linecap="round"/></g>
  <g filter="url(#callout-shadow)"><rect x="640" y="140" width="1160" height="570" rx="22" fill="#fffdf8"/></g><rect x="640" y="140" width="22" height="570" rx="11" fill="#d95645"/><circle cx="775" cy="270" r="68" fill="#d95645"/><path d="M775 226V284" stroke="#fff" stroke-width="15" stroke-linecap="round"/><circle cx="775" cy="310" r="9" fill="#fff"/><text x="885" y="245" fill="#a33e35" font-family="Segoe UI, sans-serif" font-size="22" font-weight="800" letter-spacing="4">IMPORTANT</text><rect x="885" y="390" width="720" height="16" rx="8" fill="#9a7465" opacity="0.36"/><rect x="885" y="430" width="820" height="16" rx="8" fill="#9a7465" opacity="0.25"/><rect x="885" y="470" width="610" height="16" rx="8" fill="#9a7465" opacity="0.18"/><rect x="885" y="545" width="260" height="54" rx="27" fill="#f3d39f"/>
  <rect x="80" y="850" width="1760" height="160" rx="18" fill="#492f2a" filter="url(#callout-shadow)"/><rect x="80" y="850" width="12" height="160" rx="6" fill="#d95645"/><text x="130" y="907" fill="#f0aa81" font-family="Segoe UI, sans-serif" font-size="20" font-weight="800" letter-spacing="3">NARRATION</text>
</svg>
