<svg xmlns="http://www.w3.org/2000/svg" viewBox="0 0 1920 1080" width="1920" height="1080">
  <defs><linearGradient id="time-new-bg" x2="1" y2="1"><stop stop-color="#102b39"/><stop offset="1" stop-color="#20546a"/></linearGradient><linearGradient id="time-new-cloud" y2="1"><stop stop-color="#fff"/><stop offset="1" stop-color="#dceff4"/></linearGradient><filter id="time-new-shadow" x="-20%" y="-20%" width="140%" height="150%"><feDropShadow dy="16" stdDeviation="20" flood-color="#06151c" flood-opacity=".4"/></filter></defs>
  <rect width="1920" height="1080" fill="url(#time-new-bg)"/><circle cx="1550" cy="220" r="390" fill="#27c6d8" opacity=".09"/>
  <text x="80" y="105" fill="#69ddeb" font-family="Segoe UI, sans-serif" font-size="24" font-weight="800" letter-spacing="4">TIMELINE</text>
  <line x1="650" y1="455" x2="1750" y2="455" stroke="#69ddeb" stroke-width="8" stroke-linecap="round" opacity=".55"/><path d="M1725 435L1750 455 1725 475" fill="none" stroke="#69ddeb" stroke-width="8" stroke-linecap="round" stroke-linejoin="round"/>
  <g font-family="Segoe UI, sans-serif" text-anchor="middle"><g fill="#69ddeb"><circle cx="690" cy="455" r="24"/><circle cx="1030" cy="455" r="24"/><circle cx="1370" cy="455" r="24"/><circle cx="1710" cy="455" r="24"/></g><g fill="#102b39" font-size="19" font-weight="900"><text x="690" y="462">1</text><text x="1030" y="462">2</text><text x="1370" y="462">3</text><text x="1710" y="462">4</text></g>
    <g filter="url(#time-new-shadow)"><rect x="620" y="205" width="260" height="150" rx="18" fill="#f7fdff"/><rect x="900" y="555" width="260" height="150" rx="18" fill="#f7fdff"/><rect x="1240" y="205" width="260" height="150" rx="18" fill="#f7fdff"/><rect x="1520" y="555" width="260" height="150" rx="18" fill="#f7fdff"/></g></g>
  <g stroke="#69ddeb" stroke-width="3" stroke-dasharray="7 7" opacity=".55"><line x1="690" y1="355" x2="690" y2="431"/><line x1="1030" y1="479" x2="1030" y2="555"/><line x1="1370" y1="355" x2="1370" y2="431"/><line x1="1710" y1="479" x2="1710" y2="555"/></g>
</svg>
