<svg xmlns="http://www.w3.org/2000/svg" viewBox="0 0 1920 1080" width="1920" height="1080">
  <defs><linearGradient id="diagram-new-bg" x2="1" y2="1"><stop stop-color="#eef8f1"/><stop offset="1" stop-color="#cde8dc"/></linearGradient><linearGradient id="diagram-new-cloud" y2="1"><stop stop-color="#fff"/><stop offset="1" stop-color="#e0f1e8"/></linearGradient><filter id="diagram-new-shadow" x="-20%" y="-20%" width="140%" height="150%"><feDropShadow dy="16" stdDeviation="20" flood-color="#153c30" flood-opacity=".22"/></filter></defs>
  <rect width="1920" height="1080" fill="url(#diagram-new-bg)"/><circle cx="1500" cy="300" r="360" fill="#55ad81" opacity=".08"/>
  <text x="80" y="105" fill="#2f7f60" font-family="Segoe UI, sans-serif" font-size="24" font-weight="800" letter-spacing="4">SYSTEM MAP</text>
  <g transform="translate(330 430)" filter="url(#diagram-new-shadow)"><circle cx="-78" cy="20" r="72" fill="url(#diagram-new-cloud)"/><circle cx="78" cy="20" r="72" fill="url(#diagram-new-cloud)"/><circle cx="-36" cy="-48" r="62" fill="url(#diagram-new-cloud)"/><circle cx="38" cy="-48" r="62" fill="url(#diagram-new-cloud)"/><ellipse cy="28" rx="126" ry="82" fill="url(#diagram-new-cloud)"/><polygon points="-76,-62 0,-96 76,-62 0,-28" fill="#244e68"/><polygon points="-76,-62 0,-86 76,-62 0,-38" fill="#36728f"/><ellipse cx="-31" cy="4" rx="15" ry="18" fill="#fff"/><circle cx="-29" cy="7" r="10" fill="#263b4a"/><ellipse cx="31" cy="4" rx="15" ry="18" fill="#fff"/><circle cx="33" cy="7" r="10" fill="#263b4a"/><path d="M-18 42Q0 59 18 42" fill="none" stroke="#d45b5b" stroke-width="7" stroke-linecap="round"/></g>
  <g fill="none" stroke="#5b9d7d" stroke-width="5" opacity=".65"><path d="M830 270C980 270 1000 400 1120 430M830 610C980 610 1000 480 1120 450M1450 430C1580 400 1600 270 1710 270M1450 450C1580 480 1600 610 1710 610"/></g>
  <g filter="url(#diagram-new-shadow)" font-family="Segoe UI, sans-serif" font-size="21" font-weight="800" text-anchor="middle"><rect x="620" y="205" width="210" height="130" rx="18" fill="#fff" stroke="#e3a44d" stroke-width="4"/><rect x="620" y="545" width="210" height="130" rx="18" fill="#fff" stroke="#5c93b2" stroke-width="4"/><rect x="1120" y="335" width="330" height="220" rx="110" fill="#2f7f60"/><rect x="1710" y="205" width="70" height="130" rx="18" fill="#fff" stroke="#bd6f88" stroke-width="4"/><rect x="1710" y="545" width="70" height="130" rx="18" fill="#fff" stroke="#7e72b5" stroke-width="4"/></g>
  <g fill="#2f7f60"><circle cx="980" cy="318" r="7"/><circle cx="980" cy="562" r="7"/><circle cx="1585" cy="318" r="7"/><circle cx="1585" cy="562" r="7"/></g>
  <rect x="80" y="850" width="1760" height="160" rx="20" fill="#173c30" opacity=".96" filter="url(#diagram-new-shadow)"/><rect x="108" y="880" width="6" height="70" rx="3" fill="#72c89e"/><text x="142" y="910" fill="#bde5d1" font-family="Segoe UI, sans-serif" font-size="20" font-weight="800" letter-spacing="3">NARRATION</text><line x1="142" y1="954" x2="1788" y2="954" stroke="#fff" stroke-opacity=".2" stroke-width="2"/>
</svg>
