<svg xmlns="http://www.w3.org/2000/svg" viewBox="0 0 1920 1080" width="1920" height="1080">
  <defs><linearGradient id="check-new-bg" x2="1" y2="1"><stop stop-color="#f3f8e9"/><stop offset="1" stop-color="#d2e6b3"/></linearGradient><linearGradient id="check-new-cloud" y2="1"><stop stop-color="#fff"/><stop offset="1" stop-color="#e8f2d9"/></linearGradient><filter id="check-new-shadow" x="-20%" y="-20%" width="140%" height="150%"><feDropShadow dy="14" stdDeviation="18" flood-color="#263c18" flood-opacity=".2"/></filter></defs>
  <rect width="1920" height="1080" fill="url(#check-new-bg)"/><circle cx="290" cy="420" r="360" fill="#78a943" opacity=".1"/>
  <text x="80" y="105" fill="#557f2c" font-family="Segoe UI, sans-serif" font-size="24" font-weight="800" letter-spacing="4">CHECKLIST</text>
  <g filter="url(#check-new-shadow)"><rect x="620" y="150" width="1160" height="105" rx="18" fill="#fff" opacity=".9"/><rect x="620" y="280" width="1160" height="105" rx="18" fill="#fff" opacity=".9"/><rect x="620" y="410" width="1160" height="105" rx="18" fill="#fff" opacity=".9"/><rect x="620" y="540" width="1160" height="105" rx="18" fill="#fff" opacity=".9"/><rect x="620" y="670" width="1160" height="105" rx="18" fill="#fff" opacity=".9"/></g>
  <g fill="none" stroke="#70a33d" stroke-width="7" stroke-linecap="round" stroke-linejoin="round"><circle cx="685" cy="202" r="30" fill="#70a33d"/><path d="M670 201L681 212 702 187" stroke="#fff"/><circle cx="685" cy="332" r="30" fill="#70a33d"/><path d="M670 331L681 342 702 317" stroke="#fff"/><circle cx="685" cy="462" r="30" fill="#70a33d"/><path d="M670 461L681 472 702 447" stroke="#fff"/><circle cx="685" cy="592" r="30" fill="#70a33d"/><path d="M670 591L681 602 702 577" stroke="#fff"/><circle cx="685" cy="722" r="30" fill="#fff"/><path d="M670 721L681 732 702 707" opacity=".25"/></g>
  <g fill="#70a33d" opacity=".18"><rect x="1240" y="188" width="460" height="28" rx="14"/><rect x="1320" y="318" width="380" height="28" rx="14"/><rect x="1210" y="448" width="490" height="28" rx="14"/><rect x="1280" y="578" width="420" height="28" rx="14"/><rect x="1360" y="708" width="340" height="28" rx="14"/></g>
  <rect x="80" y="850" width="1760" height="160" rx="20" fill="#2d431f" opacity=".96" filter="url(#check-new-shadow)"/><rect x="108" y="880" width="6" height="70" rx="3" fill="#9bca65"/><text x="142" y="910" fill="#d8efbf" font-family="Segoe UI, sans-serif" font-size="20" font-weight="800" letter-spacing="3">NARRATION</text><line x1="142" y1="954" x2="1788" y2="954" stroke="#fff" stroke-opacity=".2" stroke-width="2"/>
</svg>
