<svg xmlns="http://www.w3.org/2000/svg" viewBox="0 0 1920 1080" width="1920" height="1080">
  <defs><linearGradient id="term-new-bg" x2="1" y2="1"><stop stop-color="#071a16"/><stop offset="1" stop-color="#16463a"/></linearGradient><linearGradient id="term-new-cloud" y2="1"><stop stop-color="#fff"/><stop offset="1" stop-color="#d8f2e9"/></linearGradient><filter id="term-new-shadow" x="-20%" y="-20%" width="140%" height="150%"><feDropShadow dy="18" stdDeviation="22" flood-color="#020b08" flood-opacity=".45"/></filter></defs>
  <rect width="1920" height="1080" fill="url(#term-new-bg)"/><path d="M0 0H560L420 850H0Z" fill="#27b497" opacity=".1"/>
  <text x="80" y="105" fill="#70e0c4" font-family="Segoe UI, sans-serif" font-size="24" font-weight="800" letter-spacing="4">TERMINAL SESSION</text>
  <g transform="translate(330 440)" filter="url(#term-new-shadow)"><circle cx="-78" cy="20" r="72" fill="url(#term-new-cloud)"/><circle cx="78" cy="20" r="72" fill="url(#term-new-cloud)"/><circle cx="-36" cy="-48" r="62" fill="url(#term-new-cloud)"/><circle cx="38" cy="-48" r="62" fill="url(#term-new-cloud)"/><ellipse cy="28" rx="126" ry="82" fill="url(#term-new-cloud)"/><polygon points="-76,-62 0,-96 76,-62 0,-28" fill="#285470"/><polygon points="-76,-62 0,-86 76,-62 0,-38" fill="#397898"/><ellipse cx="-31" cy="4" rx="15" ry="18" fill="#fff"/><circle cx="-29" cy="7" r="10" fill="#243849"/><ellipse cx="31" cy="4" rx="15" ry="18" fill="#fff"/><circle cx="33" cy="7" r="10" fill="#243849"/><path d="M-18 42Q0 59 18 42" fill="none" stroke="#d45b5b" stroke-width="7" stroke-linecap="round"/></g>
  <g filter="url(#term-new-shadow)"><rect x="620" y="110" width="1160" height="650" rx="24" fill="#020b08"/></g><path d="M644 110H1756Q1780 110 1780 134V180H620V134Q620 110 644 110Z" fill="#0b241c"/><circle cx="665" cy="145" r="10" fill="#ff6259"/><circle cx="701" cy="145" r="10" fill="#ffc143"/><circle cx="737" cy="145" r="10" fill="#39d06f"/><text x="1200" y="153" text-anchor="middle" fill="#70e0c4" font-family="Consolas, monospace" font-size="20">workspace / bash</text>
  <g font-family="Consolas, monospace" font-size="25"><text x="675" y="245" fill="#70e0c4">$</text><text x="675" y="305" fill="#4e8375">›</text><text x="675" y="425" fill="#48d77b">✓</text><text x="675" y="505" fill="#70e0c4">$</text><text x="675" y="565" fill="#4e8375">›</text><text x="675" y="635" fill="#70e0c4">$</text><rect x="715" y="611" width="13" height="31" fill="#70e0c4"/></g>
  <rect x="80" y="850" width="1760" height="160" rx="20" fill="#020b08" opacity=".94" filter="url(#term-new-shadow)"/><rect x="108" y="880" width="6" height="70" rx="3" fill="#70e0c4"/><text x="142" y="910" fill="#70e0c4" font-family="Segoe UI, sans-serif" font-size="20" font-weight="800" letter-spacing="3">NARRATION</text><line x1="142" y1="954" x2="1788" y2="954" stroke="#70e0c4" stroke-opacity=".2" stroke-width="2"/>
</svg>
