<svg xmlns="http://www.w3.org/2000/svg" viewBox="0 0 1920 1080" width="1920" height="1080">
  <defs><linearGradient id="recap-bg" x2="1" y2="1"><stop stop-color="#eaf4fb"/><stop offset="1" stop-color="#cbdfea"/></linearGradient><linearGradient id="recap-cloud" y2="1"><stop stop-color="#fff"/><stop offset="1" stop-color="#dcebf2"/></linearGradient><filter id="recap-shadow" x="-25%" y="-25%" width="150%" height="165%"><feDropShadow dy="12" stdDeviation="16" flood-color="#193548" flood-opacity="0.2"/></filter></defs>
  <rect width="1920" height="1080" fill="url(#recap-bg)"/><path d="M0 0H575L500 820H0Z" fill="#23627c" opacity="0.1"/><g fill="none" stroke="#267c91" stroke-width="2" opacity="0.14"><circle cx="1700" cy="120" r="220"/><circle cx="1700" cy="120" r="150"/></g>
  <text x="90" y="118" fill="#1e6b80" font-family="Segoe UI, sans-serif" font-size="22" font-weight="800" letter-spacing="4">RECAP</text>
  <g filter="url(#recap-shadow)" fill="#fff"><rect x="640" y="260" width="560" height="180" rx="18"/><rect x="1230" y="260" width="560" height="180" rx="18"/><rect x="640" y="470" width="560" height="180" rx="18"/><rect x="1230" y="470" width="560" height="180" rx="18"/></g>
  <g fill="#2b8a78"><circle cx="705" cy="325" r="31"/><circle cx="1295" cy="325" r="31"/><circle cx="705" cy="535" r="31"/><circle cx="1295" cy="535" r="31"/></g><g fill="none" stroke="#fff" stroke-width="8" stroke-linecap="round" stroke-linejoin="round"><path d="M690 325l11 12 21-25"/><path d="M1280 325l11 12 21-25"/><path d="M690 535l11 12 21-25"/><path d="M1280 535l11 12 21-25"/></g>
  <g fill="#5d8393" opacity="0.5"><rect x="755" y="350" width="340" height="12" rx="6"/><rect x="755" y="380" width="260" height="12" rx="6"/><rect x="1345" y="350" width="340" height="12" rx="6"/><rect x="1345" y="380" width="260" height="12" rx="6"/><rect x="755" y="560" width="340" height="12" rx="6"/><rect x="755" y="590" width="260" height="12" rx="6"/><rect x="1345" y="560" width="340" height="12" rx="6"/><rect x="1345" y="590" width="260" height="12" rx="6"/></g>
  <rect x="80" y="850" width="1760" height="160" rx="18" fill="#173d52" filter="url(#recap-shadow)"/><rect x="80" y="850" width="12" height="160" rx="6" fill="#f0a64c"/><text x="130" y="907" fill="#f5bd77" font-family="Segoe UI, sans-serif" font-size="20" font-weight="800" letter-spacing="3">NARRATION</text>
</svg>
