<svg xmlns="http://www.w3.org/2000/svg" viewBox="0 0 1920 1080" width="1920" height="1080">
  <defs>
    <linearGradient id="gallery-bg" x2="1" y2="1"><stop stop-color="#fff7ef"/><stop offset="1" stop-color="#f7c6b2"/></linearGradient>
    <linearGradient id="gallery-cloud" y2="1"><stop stop-color="#fff"/><stop offset="1" stop-color="#f4e8e6"/></linearGradient>
    <filter id="gallery-shadow" x="-20%" y="-20%" width="140%" height="150%"><feDropShadow dy="16" stdDeviation="18" flood-color="#713b2f" flood-opacity=".2"/></filter>
  </defs>
  <rect width="1920" height="1080" fill="url(#gallery-bg)"/>
  <path d="M0 0H720L580 850H0Z" fill="#fff" opacity=".38"/><g fill="none" stroke="#bf5b4b" stroke-opacity=".12" stroke-width="2"><circle cx="205" cy="170" r="130"/><circle cx="205" cy="170" r="200"/></g>
  <text x="90" y="122" fill="#b94b3d" font-family="Segoe UI, sans-serif" font-size="24" font-weight="800" letter-spacing="4">GALLERY</text>
  <g filter="url(#gallery-shadow)" fill="#fff"><rect x="742" y="142" width="526" height="286" rx="18"/><rect x="1272" y="142" width="526" height="286" rx="18"/><rect x="742" y="432" width="526" height="286" rx="18"/><rect x="1272" y="432" width="526" height="286" rx="18"/></g>
  <!-- Gallery inner slots: (760,160,490,250), (1290,160,490,250), (760,450,490,250), (1290,450,490,250) -->
  <rect x="760" y="160" width="490" height="176" rx="10" fill="#2a9d8f"/><rect x="1290" y="160" width="490" height="176" rx="10" fill="#264653"/><rect x="760" y="450" width="490" height="176" rx="10" fill="#e76f51"/><rect x="1290" y="450" width="490" height="176" rx="10" fill="#8f668f"/>
  <g fill="#fff" opacity=".3"><path d="M760 314L900 218l92 64 74-50 184 82v22H760Z"/><path d="M1290 314l118-80 105 60 94-76 173 96v22h-490Z"/><path d="M760 604l116-84 105 60 94-82 175 106v22H760Z"/><path d="M1290 604l146-104 95 74 80-60 169 90v22h-490Z"/></g>
</svg>
