<svg xmlns="http://www.w3.org/2000/svg" viewBox="0 0 1920 1080" width="1920" height="1080">
  <defs><linearGradient id="quote-bg" x2="1" y2="1"><stop stop-color="#fbf8f2"/><stop offset="1" stop-color="#eadfd2"/></linearGradient><linearGradient id="quote-cloud" y2="1"><stop stop-color="#fff"/><stop offset="1" stop-color="#eee8df"/></linearGradient><filter id="quote-shadow" x="-25%" y="-25%" width="150%" height="165%"><feDropShadow dy="14" stdDeviation="18" flood-color="#4a362a" flood-opacity="0.2"/></filter></defs>
  <rect width="1920" height="1080" fill="url(#quote-bg)"/><rect x="0" width="580" height="820" fill="#244c4a"/><path d="M510 0H580V820H430Z" fill="#d99758" opacity="0.75"/><text x="90" y="118" fill="#f0c190" font-family="Segoe UI, sans-serif" font-size="22" font-weight="800" letter-spacing="4">QUOTED</text>
  <g filter="url(#quote-shadow)"><circle cx="235" cy="465" r="108" fill="url(#quote-cloud)"/><circle cx="401" cy="465" r="108" fill="url(#quote-cloud)"/><circle cx="277" cy="375" r="98" fill="url(#quote-cloud)"/><circle cx="365" cy="375" r="98" fill="url(#quote-cloud)"/><ellipse cx="318" cy="482" rx="180" ry="118" fill="url(#quote-cloud)"/><polygon points="202,360 318,316 434,360 318,404" fill="#b86d3f"/><polygon points="202,360 318,330 434,360 318,390" fill="#dc965d"/><path d="M402 370V440" stroke="#f0c190" stroke-width="10"/><circle cx="402" cy="450" r="13" fill="#f0c190"/><ellipse cx="266" cy="454" rx="25" ry="32" fill="#fff"/><circle cx="272" cy="462" r="16" fill="#24403f"/><ellipse cx="370" cy="454" rx="25" ry="32" fill="#fff"/><circle cx="376" cy="462" r="16" fill="#24403f"/><path d="M282 510Q318 542 354 510" fill="none" stroke="#c65b64" stroke-width="11" stroke-linecap="round"/></g>
  <g filter="url(#quote-shadow)"><rect x="650" y="115" width="1160" height="610" rx="20" fill="#fffdf9"/></g><rect x="650" y="115" width="14" height="610" rx="7" fill="#d99758"/><text x="720" y="270" fill="#d99758" font-family="Georgia, serif" font-size="150" font-weight="700">“</text><rect x="820" y="465" width="760" height="2" fill="#d8cabe"/><circle cx="1690" cy="588" r="54" fill="#244c4a"/><text x="1690" y="617" text-anchor="middle" fill="#f0c190" font-family="Georgia, serif" font-size="68">”</text>
  <rect x="80" y="850" width="1760" height="160" rx="18" fill="#244c4a" filter="url(#quote-shadow)"/><rect x="80" y="850" width="12" height="160" rx="6" fill="#d99758"/><text x="130" y="907" fill="#f0c190" font-family="Segoe UI, sans-serif" font-size="20" font-weight="800" letter-spacing="3">NARRATION</text>
</svg>
