<svg xmlns="http://www.w3.org/2000/svg" viewBox="0 0 1920 1080" width="1920" height="1080">
  <defs><linearGradient id="steps-new-bg" x2="1" y2="1"><stop stop-color="#fff2e8"/><stop offset="1" stop-color="#ffd0b8"/></linearGradient><linearGradient id="steps-new-cloud" y2="1"><stop stop-color="#fff"/><stop offset="1" stop-color="#ffe5d7"/></linearGradient><filter id="steps-new-shadow" x="-20%" y="-20%" width="140%" height="150%"><feDropShadow dy="14" stdDeviation="18" flood-color="#71331e" flood-opacity=".2"/></filter></defs>
  <rect width="1920" height="1080" fill="url(#steps-new-bg)"/><path d="M0 120Q280 20 580 210V760Q280 680 0 810Z" fill="#f27448" opacity=".12"/>
  <text x="80" y="105" fill="#c44e27" font-family="Segoe UI, sans-serif" font-size="24" font-weight="800" letter-spacing="4">STEP BY STEP</text>
  <g transform="translate(330 430)" filter="url(#steps-new-shadow)"><circle cx="-78" cy="20" r="72" fill="url(#steps-new-cloud)"/><circle cx="78" cy="20" r="72" fill="url(#steps-new-cloud)"/><circle cx="-36" cy="-48" r="62" fill="url(#steps-new-cloud)"/><circle cx="38" cy="-48" r="62" fill="url(#steps-new-cloud)"/><ellipse cy="28" rx="126" ry="82" fill="url(#steps-new-cloud)"/><polygon points="-76,-62 0,-96 76,-62 0,-28" fill="#244e68"/><polygon points="-76,-62 0,-86 76,-62 0,-38" fill="#36728f"/><ellipse cx="-31" cy="4" rx="15" ry="18" fill="#fff"/><circle cx="-29" cy="7" r="10" fill="#263b4a"/><ellipse cx="31" cy="4" rx="15" ry="18" fill="#fff"/><circle cx="33" cy="7" r="10" fill="#263b4a"/><path d="M-18 42Q0 59 18 42" fill="none" stroke="#d45b5b" stroke-width="7" stroke-linecap="round"/></g>
  <g filter="url(#steps-new-shadow)" font-family="Segoe UI, sans-serif"><rect x="620" y="150" width="1160" height="105" rx="18" fill="#fffaf6"/><rect x="620" y="280" width="1160" height="105" rx="18" fill="#fffaf6"/><rect x="620" y="410" width="1160" height="105" rx="18" fill="#fffaf6"/><rect x="620" y="540" width="1160" height="105" rx="18" fill="#fffaf6"/><rect x="620" y="670" width="1160" height="105" rx="18" fill="#fffaf6"/></g>
  <g font-family="Segoe UI, sans-serif" font-weight="800"><g fill="#ef6a3a"><circle cx="685" cy="202" r="35"/><circle cx="685" cy="332" r="35"/><circle cx="685" cy="462" r="35"/><circle cx="685" cy="592" r="35"/><circle cx="685" cy="722" r="35"/></g><g fill="#fff" font-size="27" text-anchor="middle"><text x="685" y="212">1</text><text x="685" y="342">2</text><text x="685" y="472">3</text><text x="685" y="602">4</text><text x="685" y="732">5</text></g><g fill="#ef6a3a" opacity=".16"><rect x="1240" y="183" width="460" height="38" rx="19"/><rect x="1180" y="313" width="520" height="38" rx="19"/><rect x="1300" y="443" width="400" height="38" rx="19"/><rect x="1210" y="573" width="490" height="38" rx="19"/><rect x="1260" y="703" width="440" height="38" rx="19"/></g></g>
  <rect x="80" y="850" width="1760" height="160" rx="20" fill="#592a1d" opacity=".95" filter="url(#steps-new-shadow)"/><rect x="108" y="880" width="6" height="70" rx="3" fill="#ff8a5d"/><text x="142" y="910" fill="#ffd0ba" font-family="Segoe UI, sans-serif" font-size="20" font-weight="800" letter-spacing="3">NARRATION</text><line x1="142" y1="954" x2="1788" y2="954" stroke="#fff" stroke-opacity=".2" stroke-width="2"/>
</svg>
