<svg xmlns="http://www.w3.org/2000/svg" viewBox="0 0 1920 1080" width="1920" height="1080">
  <defs><linearGradient id="board-new-bg" x2="1" y2="1"><stop stop-color="#fff7ed"/><stop offset="1" stop-color="#dcecf4"/></linearGradient><linearGradient id="board-new-cloud" y2="1"><stop stop-color="#fff"/><stop offset="1" stop-color="#e9f2f5"/></linearGradient><filter id="board-new-shadow" x="-20%" y="-20%" width="140%" height="150%"><feDropShadow dy="16" stdDeviation="20" flood-color="#173744" flood-opacity=".2"/></filter></defs>
  <rect width="1920" height="1080" fill="url(#board-new-bg)"/><path d="M0 680Q250 570 560 690V1080H0Z" fill="#f3a65f" opacity=".13"/>
  <text x="80" y="105" fill="#b64f2d" font-family="Segoe UI, sans-serif" font-size="24" font-weight="800" letter-spacing="4">WHITEBOARD</text>
  <g transform="translate(330 430)" filter="url(#board-new-shadow)"><circle cx="-78" cy="20" r="72" fill="url(#board-new-cloud)"/><circle cx="78" cy="20" r="72" fill="url(#board-new-cloud)"/><circle cx="-36" cy="-48" r="62" fill="url(#board-new-cloud)"/><circle cx="38" cy="-48" r="62" fill="url(#board-new-cloud)"/><ellipse cy="28" rx="126" ry="82" fill="url(#board-new-cloud)"/><polygon points="-76,-62 0,-96 76,-62 0,-28" fill="#244e68"/><polygon points="-76,-62 0,-86 76,-62 0,-38" fill="#36728f"/><ellipse cx="-31" cy="4" rx="15" ry="18" fill="#fff"/><circle cx="-29" cy="7" r="10" fill="#263b4a"/><ellipse cx="31" cy="4" rx="15" ry="18" fill="#fff"/><circle cx="33" cy="7" r="10" fill="#263b4a"/><path d="M-18 42Q0 59 18 42" fill="none" stroke="#d45b5b" stroke-width="7" stroke-linecap="round"/></g>
  <g filter="url(#board-new-shadow)"><rect x="620" y="110" width="1160" height="650" rx="14" fill="#fffdf8" stroke="#bad0da" stroke-width="4"/></g><rect x="620" y="742" width="1160" height="18" rx="7" fill="#6b8792"/><rect x="1000" y="756" width="400" height="14" rx="7" fill="#91a8b0"/>
  <rect x="670" y="150" width="360" height="58" rx="10" fill="#f4b183" opacity=".35"/><text x="695" y="188" fill="#a53f25" font-family="Segoe UI, sans-serif" font-size="23" font-weight="800">HOW THE IDEA CONNECTS</text>
  <path d="M905 342H1100M1280 342H1450M1190 400V520M905 580H1060M1320 580H1450" fill="none" stroke="#4d8296" stroke-width="5" stroke-linecap="round"/><path d="M1080 332L1100 342 1080 352M1430 332L1450 342 1430 352M1180 500L1190 520 1200 500" fill="none" stroke="#4d8296" stroke-width="5" stroke-linecap="round" stroke-linejoin="round"/>
  <g font-family="Segoe UI, sans-serif" font-size="20" font-weight="800" text-anchor="middle"><rect x="690" y="275" width="215" height="134" rx="14" fill="#ffe0c2" stroke="#e78a4d" stroke-width="3"/><rect x="1100" y="275" width="180" height="134" rx="70" fill="#d8edf3" stroke="#4d8296" stroke-width="3"/><rect x="1450" y="275" width="270" height="134" rx="14" fill="#dfe9ca" stroke="#7e9d50" stroke-width="3"/><rect x="690" y="520" width="370" height="120" rx="14" fill="#fff0b8" stroke="#d7a92e" stroke-width="3"/><rect x="1320" y="520" width="400" height="120" rx="14" fill="#eadcf2" stroke="#9470a8" stroke-width="3"/></g>
  <rect x="80" y="850" width="1760" height="160" rx="20" fill="#203946" opacity=".96" filter="url(#board-new-shadow)"/><rect x="108" y="880" width="6" height="70" rx="3" fill="#f4a261"/><text x="142" y="910" fill="#ffd5b3" font-family="Segoe UI, sans-serif" font-size="20" font-weight="800" letter-spacing="3">NARRATION</text><line x1="142" y1="954" x2="1788" y2="954" stroke="#fff" stroke-opacity=".2" stroke-width="2"/>
</svg>
