<svg xmlns="http://www.w3.org/2000/svg" viewBox="0 0 1920 1080" width="1920" height="1080">
  <defs><linearGradient id="diagram-new-bg" x2="1" y2="1"><stop stop-color="#eef8f1"/><stop offset="1" stop-color="#cde8dc"/></linearGradient><linearGradient id="diagram-new-cloud" y2="1"><stop stop-color="#fff"/><stop offset="1" stop-color="#e0f1e8"/></linearGradient><filter id="diagram-new-shadow" x="-20%" y="-20%" width="140%" height="150%"><feDropShadow dy="16" stdDeviation="20" flood-color="#153c30" flood-opacity=".22"/></filter></defs>
  <rect width="1920" height="1080" fill="url(#diagram-new-bg)"/><circle cx="1500" cy="300" r="360" fill="#55ad81" opacity=".08"/>
  <text x="80" y="105" fill="#2f7f60" font-family="Segoe UI, sans-serif" font-size="24" font-weight="800" letter-spacing="4">SYSTEM MAP</text>
  <g fill="none" stroke="#5b9d7d" stroke-width="5" opacity=".65"><path d="M830 270C980 270 1000 400 1120 430M830 610C980 610 1000 480 1120 450M1450 430C1580 400 1600 270 1710 270M1450 450C1580 480 1600 610 1710 610"/></g>
  <g filter="url(#diagram-new-shadow)" font-family="Segoe UI, sans-serif" font-size="21" font-weight="800" text-anchor="middle"><rect x="620" y="205" width="210" height="130" rx="18" fill="#fff" stroke="#e3a44d" stroke-width="4"/><rect x="620" y="545" width="210" height="130" rx="18" fill="#fff" stroke="#5c93b2" stroke-width="4"/><rect x="1120" y="335" width="330" height="220" rx="110" fill="#2f7f60"/><rect x="1710" y="205" width="70" height="130" rx="18" fill="#fff" stroke="#bd6f88" stroke-width="4"/><rect x="1710" y="545" width="70" height="130" rx="18" fill="#fff" stroke="#7e72b5" stroke-width="4"/></g>
  <g fill="#2f7f60"><circle cx="980" cy="318" r="7"/><circle cx="980" cy="562" r="7"/><circle cx="1585" cy="318" r="7"/><circle cx="1585" cy="562" r="7"/></g>
</svg>
