<svg xmlns="http://www.w3.org/2000/svg" viewBox="0 0 1920 1080" width="1920" height="1080">
  <defs><linearGradient id="road-new-bg" x2="1" y2="1"><stop stop-color="#f5eff8"/><stop offset="1" stop-color="#d9d2e8"/></linearGradient><linearGradient id="road-new-cloud" y2="1"><stop stop-color="#fff"/><stop offset="1" stop-color="#ece6f3"/></linearGradient><linearGradient id="road-new-node" y2="1"><stop stop-color="#a884c4"/><stop offset="1" stop-color="#72508f"/></linearGradient><filter id="road-new-shadow" x="-20%" y="-20%" width="140%" height="150%"><feDropShadow dy="15" stdDeviation="19" flood-color="#2f2040" flood-opacity=".24"/></filter></defs>
  <rect width="1920" height="1080" fill="url(#road-new-bg)"/><path d="M0 0H600L420 820H0Z" fill="#8d6aaa" opacity=".1"/>
  <text x="80" y="105" fill="#72508f" font-family="Segoe UI, sans-serif" font-size="24" font-weight="800" letter-spacing="4">ROADMAP</text>
  <path d="M650 555C790 330 920 330 1050 505S1310 680 1435 475 1640 310 1760 390" fill="none" stroke="#a286b9" stroke-width="14" stroke-linecap="round" opacity=".55"/><path d="M650 555C790 330 920 330 1050 505S1310 680 1435 475 1640 310 1760 390" fill="none" stroke="#72508f" stroke-width="5" stroke-linecap="round" stroke-dasharray="2 24"/>
  <g filter="url(#road-new-shadow)"><circle cx="680" cy="510" r="46" fill="url(#road-new-node)"/><circle cx="960" cy="420" r="46" fill="url(#road-new-node)"/><circle cx="1240" cy="590" r="46" fill="url(#road-new-node)"/><circle cx="1500" cy="395" r="46" fill="url(#road-new-node)"/><circle cx="1740" cy="380" r="46" fill="#d9a646"/></g>
  <g fill="#fff" font-family="Segoe UI, sans-serif" font-size="27" font-weight="900" text-anchor="middle"><text x="680" y="520">1</text><text x="960" y="430">2</text><text x="1240" y="600">3</text><text x="1500" y="405">4</text><path d="M1720 380L1734 394 1761 362" fill="none" stroke="#fff" stroke-width="7" stroke-linecap="round" stroke-linejoin="round"/></g>
</svg>
