<svg xmlns="http://www.w3.org/2000/svg" viewBox="0 0 1920 1080" width="1920" height="1080">
  <defs><linearGradient id="time-new-bg" x2="1" y2="1"><stop stop-color="#102b39"/><stop offset="1" stop-color="#20546a"/></linearGradient><linearGradient id="time-new-cloud" y2="1"><stop stop-color="#fff"/><stop offset="1" stop-color="#dceff4"/></linearGradient><filter id="time-new-shadow" x="-20%" y="-20%" width="140%" height="150%"><feDropShadow dy="16" stdDeviation="20" flood-color="#06151c" flood-opacity=".4"/></filter></defs>
  <rect width="1920" height="1080" fill="url(#time-new-bg)"/><circle cx="1550" cy="220" r="390" fill="#27c6d8" opacity=".09"/>
  <text x="80" y="105" fill="#69ddeb" font-family="Segoe UI, sans-serif" font-size="24" font-weight="800" letter-spacing="4">TIMELINE</text>
  <g transform="translate(330 430)" filter="url(#time-new-shadow)"><circle cx="-78" cy="20" r="72" fill="url(#time-new-cloud)"/><circle cx="78" cy="20" r="72" fill="url(#time-new-cloud)"/><circle cx="-36" cy="-48" r="62" fill="url(#time-new-cloud)"/><circle cx="38" cy="-48" r="62" fill="url(#time-new-cloud)"/><ellipse cy="28" rx="126" ry="82" fill="url(#time-new-cloud)"/><polygon points="-76,-62 0,-96 76,-62 0,-28" fill="#244e68"/><polygon points="-76,-62 0,-86 76,-62 0,-38" fill="#36728f"/><ellipse cx="-31" cy="4" rx="15" ry="18" fill="#fff"/><circle cx="-29" cy="7" r="10" fill="#263b4a"/><ellipse cx="31" cy="4" rx="15" ry="18" fill="#fff"/><circle cx="33" cy="7" r="10" fill="#263b4a"/><path d="M-18 42Q0 59 18 42" fill="none" stroke="#d45b5b" stroke-width="7" stroke-linecap="round"/></g>
  <line x1="650" y1="455" x2="1750" y2="455" stroke="#69ddeb" stroke-width="8" stroke-linecap="round" opacity=".55"/><path d="M1725 435L1750 455 1725 475" fill="none" stroke="#69ddeb" stroke-width="8" stroke-linecap="round" stroke-linejoin="round"/>
  <g font-family="Segoe UI, sans-serif" text-anchor="middle"><g fill="#69ddeb"><circle cx="690" cy="455" r="24"/><circle cx="1030" cy="455" r="24"/><circle cx="1370" cy="455" r="24"/><circle cx="1710" cy="455" r="24"/></g><g fill="#102b39" font-size="19" font-weight="900"><text x="690" y="462">1</text><text x="1030" y="462">2</text><text x="1370" y="462">3</text><text x="1710" y="462">4</text></g>
    <g filter="url(#time-new-shadow)"><rect x="620" y="205" width="260" height="150" rx="18" fill="#f7fdff"/><rect x="900" y="555" width="260" height="150" rx="18" fill="#f7fdff"/><rect x="1240" y="205" width="260" height="150" rx="18" fill="#f7fdff"/><rect x="1520" y="555" width="260" height="150" rx="18" fill="#f7fdff"/></g></g>
  <g stroke="#69ddeb" stroke-width="3" stroke-dasharray="7 7" opacity=".55"><line x1="690" y1="355" x2="690" y2="431"/><line x1="1030" y1="479" x2="1030" y2="555"/><line x1="1370" y1="355" x2="1370" y2="431"/><line x1="1710" y1="479" x2="1710" y2="555"/></g>
  <rect x="80" y="850" width="1760" height="160" rx="20" fill="#071820" opacity=".95" filter="url(#time-new-shadow)"/><rect x="108" y="880" width="6" height="70" rx="3" fill="#69ddeb"/><text x="142" y="910" fill="#a9edf4" font-family="Segoe UI, sans-serif" font-size="20" font-weight="800" letter-spacing="3">NARRATION</text><line x1="142" y1="954" x2="1788" y2="954" stroke="#fff" stroke-opacity=".2" stroke-width="2"/>
</svg>
