<svg xmlns="http://www.w3.org/2000/svg" viewBox="0 0 1920 1080" width="1920" height="1080">
  <defs><linearGradient id="outro-bg" x2="1" y2="1"><stop stop-color="#251a2e"/><stop offset="1" stop-color="#63344b"/></linearGradient><linearGradient id="outro-cloud" y2="1"><stop stop-color="#fff"/><stop offset="1" stop-color="#f0e2eb"/></linearGradient><filter id="outro-shadow" x="-25%" y="-25%" width="150%" height="165%"><feDropShadow dy="16" stdDeviation="18" flood-color="#130914" flood-opacity="0.38"/></filter></defs>
  <rect width="1920" height="1080" fill="url(#outro-bg)"/><circle cx="1500" cy="150" r="330" fill="#f3b95f" opacity="0.08"/><path d="M620 720C980 600 1280 780 1840 550" fill="none" stroke="#efb660" stroke-width="3" opacity="0.2"/>
  <text x="90" y="118" fill="#f3c77f" font-family="Segoe UI, sans-serif" font-size="22" font-weight="800" letter-spacing="4">CLOSING</text>
  <g filter="url(#outro-shadow)"><circle cx="250" cy="465" r="112" fill="url(#outro-cloud)"/><circle cx="422" cy="465" r="112" fill="url(#outro-cloud)"/><circle cx="293" cy="372" r="102" fill="url(#outro-cloud)"/><circle cx="383" cy="372" r="102" fill="url(#outro-cloud)"/><ellipse cx="336" cy="482" rx="186" ry="122" fill="url(#outro-cloud)"/><polygon points="216,356 336,310 456,356 336,402" fill="#d98a48"/><polygon points="216,356 336,326 456,356 336,386" fill="#f3b95f"/><path d="M423 366V438" stroke="#f2d38e" stroke-width="10"/><circle cx="423" cy="448" r="13" fill="#f2d38e"/><ellipse cx="282" cy="454" rx="26" ry="33" fill="#fff"/><circle cx="288" cy="462" r="17" fill="#3d2737"/><ellipse cx="390" cy="454" rx="26" ry="33" fill="#fff"/><circle cx="396" cy="462" r="17" fill="#3d2737"/><path d="M298 511Q336 544 374 511" fill="none" stroke="#c55166" stroke-width="11" stroke-linecap="round"/></g>
  <g text-anchor="middle"><text x="1230" y="245" fill="#f3c77f" font-family="Segoe UI, sans-serif" font-size="24" font-weight="800" letter-spacing="5">ONE LAST THOUGHT</text><rect x="890" y="420" width="680" height="16" rx="8" fill="#fff" opacity="0.22"/><rect x="990" y="458" width="480" height="16" rx="8" fill="#fff" opacity="0.14"/><g filter="url(#outro-shadow)"><rect x="1040" y="545" width="380" height="82" rx="41" fill="#f3b95f"/></g></g>
  <rect x="80" y="850" width="1760" height="160" rx="18" fill="#fff8ef" filter="url(#outro-shadow)"/><rect x="80" y="850" width="12" height="160" rx="6" fill="#f3b95f"/><text x="130" y="907" fill="#8c4c51" font-family="Segoe UI, sans-serif" font-size="20" font-weight="800" letter-spacing="3">NARRATION</text>
</svg>
