<svg xmlns="http://www.w3.org/2000/svg" viewBox="0 0 1920 1080" width="1920" height="1080">
  <defs>
    <linearGradient id="code-bg" x1="0" y1="0" x2="1" y2="1"><stop stop-color="#08191e"/><stop offset="1" stop-color="#12343a"/></linearGradient>
    <linearGradient id="code-cloud" x1="0" y1="0" x2="0" y2="1"><stop stop-color="#ffffff"/><stop offset="1" stop-color="#d7f4ef"/></linearGradient>
    <filter id="code-shadow" x="-20%" y="-20%" width="140%" height="150%"><feDropShadow dx="0" dy="18" stdDeviation="22" flood-color="#020b0d" flood-opacity=".42"/></filter>
  </defs>
  <rect width="1920" height="1080" fill="url(#code-bg)"/><path d="M0 160C260 40 420 60 610 220V820C390 740 210 760 0 900Z" fill="#1b5660" opacity=".28"/>
  <text x="80" y="105" fill="#75ddd0" font-family="Segoe UI, sans-serif" font-size="24" font-weight="700" letter-spacing="4">CODE WALKTHROUGH</text>
  <g transform="translate(330 430)" filter="url(#code-shadow)">
    <circle cx="-78" cy="20" r="72" fill="url(#code-cloud)"/><circle cx="78" cy="20" r="72" fill="url(#code-cloud)"/><circle cx="-36" cy="-48" r="62" fill="url(#code-cloud)"/><circle cx="38" cy="-48" r="62" fill="url(#code-cloud)"/><ellipse cy="28" rx="126" ry="82" fill="url(#code-cloud)"/>
    <polygon points="-76,-62 0,-96 76,-62 0,-28" fill="#24516c"/><polygon points="-76,-62 0,-86 76,-62 0,-38" fill="#367594"/><path d="M50-53V5" stroke="#f2a66f" stroke-width="6" stroke-linecap="round"/><circle cx="50" cy="12" r="8" fill="#f2a66f"/>
    <ellipse cx="-31" cy="4" rx="15" ry="18" fill="#fff"/><circle cx="-29" cy="7" r="10" fill="#233849"/><circle cx="-25" cy="2" r="3" fill="#fff"/><ellipse cx="31" cy="4" rx="15" ry="18" fill="#fff"/><circle cx="33" cy="7" r="10" fill="#233849"/><circle cx="37" cy="2" r="3" fill="#fff"/><path d="M-18 42Q0 59 18 42" fill="none" stroke="#d45b5b" stroke-width="7" stroke-linecap="round"/>
  </g>
  <g filter="url(#code-shadow)"><rect x="620" y="110" width="1160" height="650" rx="24" fill="#071216"/></g><path d="M644 110H1756Q1780 110 1780 134V184H620V134Q620 110 644 110Z" fill="#10272d"/>
  <circle cx="665" cy="147" r="10" fill="#ff6259"/><circle cx="701" cy="147" r="10" fill="#ffc143"/><circle cx="737" cy="147" r="10" fill="#36cf63"/><text x="1200" y="155" text-anchor="middle" fill="#75ddd0" opacity=".75" font-family="Consolas, monospace" font-size="20">main.ts</text>
  <g font-family="Consolas, monospace" font-size="24"><g fill="#496970" text-anchor="end"><text x="682" y="246">01</text><text x="682" y="306">02</text><text x="682" y="366">03</text><text x="682" y="426">04</text><text x="682" y="486">05</text><text x="682" y="546">06</text><text x="682" y="606">07</text><text x="682" y="666">08</text></g>
    <rect x="725" y="642" width="12" height="30" fill="#75ddd0"/>
  </g>
  <g filter="url(#code-shadow)"><rect x="80" y="850" width="1760" height="160" rx="20" fill="#041013" opacity=".94"/></g><rect x="108" y="880" width="6" height="70" rx="3" fill="#75ddd0"/><text x="142" y="910" fill="#75ddd0" font-family="Segoe UI, sans-serif" font-size="20" font-weight="800" letter-spacing="3">NARRATION</text><line x1="142" y1="954" x2="1788" y2="954" stroke="#9ac7c3" stroke-opacity=".2" stroke-width="2"/>
</svg>
