<svg xmlns="http://www.w3.org/2000/svg" viewBox="0 0 1920 1080" width="1920" height="1080">
  <defs><linearGradient id="intro-bg" x2="1" y2="1"><stop stop-color="#f6fbf8"/><stop offset="1" stop-color="#d8eee7"/></linearGradient><linearGradient id="intro-cloud" y2="1"><stop stop-color="#fff"/><stop offset="1" stop-color="#e0eeeb"/></linearGradient><filter id="intro-shadow" x="-25%" y="-25%" width="150%" height="165%"><feDropShadow dy="12" stdDeviation="16" flood-color="#183d35" flood-opacity="0.18"/></filter></defs>
  <rect width="1920" height="1080" fill="url(#intro-bg)"/><path d="M0 0H570L500 810H0Z" fill="#14594f" opacity="0.08"/><path d="M620 112H1840" stroke="#1c8b78" stroke-width="3" opacity="0.28"/>
  <text x="90" y="118" fill="#167465" font-family="Segoe UI, sans-serif" font-size="22" font-weight="800" letter-spacing="4">INTRODUCTION</text>
  <g filter="url(#intro-shadow)"><circle cx="250" cy="465" r="112" fill="url(#intro-cloud)"/><circle cx="422" cy="465" r="112" fill="url(#intro-cloud)"/><circle cx="293" cy="372" r="102" fill="url(#intro-cloud)"/><circle cx="383" cy="372" r="102" fill="url(#intro-cloud)"/><ellipse cx="336" cy="482" rx="186" ry="122" fill="url(#intro-cloud)"/><polygon points="216,356 336,310 456,356 336,402" fill="#214d57"/><polygon points="216,356 336,326 456,356 336,386" fill="#307482"/><path d="M423 366V438" stroke="#e49b3f" stroke-width="10"/><circle cx="423" cy="448" r="13" fill="#e49b3f"/><ellipse cx="282" cy="454" rx="26" ry="33" fill="#fff"/><circle cx="288" cy="462" r="17" fill="#173a3b"/><ellipse cx="390" cy="454" rx="26" ry="33" fill="#fff"/><circle cx="396" cy="462" r="17" fill="#173a3b"/><path d="M298 511Q336 544 374 511" fill="none" stroke="#cc5c65" stroke-width="11" stroke-linecap="round"/></g>
  <rect x="640" y="225" width="180" height="8" rx="4" fill="#e49b3f"/>
  <g font-family="Segoe UI, sans-serif"><g filter="url(#intro-shadow)"><rect x="640" y="285" width="570" height="92" rx="14" fill="#fff"/><rect x="1235" y="285" width="570" height="92" rx="14" fill="#fff"/><rect x="640" y="405" width="570" height="92" rx="14" fill="#fff"/><rect x="1235" y="405" width="570" height="92" rx="14" fill="#fff"/></g><g fill="#1c8b78" font-size="26" font-weight="800"><circle cx="692" cy="331" r="24" fill="#d8eee7"/><text x="692" y="340" text-anchor="middle">1</text><circle cx="1287" cy="331" r="24" fill="#d8eee7"/><text x="1287" y="340" text-anchor="middle">2</text><circle cx="692" cy="451" r="24" fill="#d8eee7"/><text x="692" y="460" text-anchor="middle">3</text><circle cx="1287" cy="451" r="24" fill="#d8eee7"/><text x="1287" y="460" text-anchor="middle">4</text></g><g fill="#68a097" opacity="0.5"><rect x="738" y="344" width="350" height="10" rx="5"/><rect x="1333" y="344" width="350" height="10" rx="5"/><rect x="738" y="464" width="350" height="10" rx="5"/><rect x="1333" y="464" width="350" height="10" rx="5"/></g></g>
  <rect x="640" y="555" width="1165" height="150" rx="18" fill="#14594f"/><text x="690" y="620" fill="#a7ddd2" font-family="Segoe UI, sans-serif" font-size="20" font-weight="800" letter-spacing="3">CONTEXT</text><rect x="690" y="650" width="760" height="14" rx="7" fill="#fff" opacity="0.35"/><rect x="690" y="681" width="570" height="14" rx="7" fill="#fff" opacity="0.2"/>
  <rect x="80" y="850" width="1760" height="160" rx="18" fill="#153f39" filter="url(#intro-shadow)"/><rect x="80" y="850" width="12" height="160" rx="6" fill="#e49b3f"/><text x="130" y="907" fill="#f0ba78" font-family="Segoe UI, sans-serif" font-size="20" font-weight="800" letter-spacing="3">NARRATION</text>
</svg>
